<?xml version="1.0" encoding="utf-8"?>
<!-- Generator: Adobe Illustrator 23.0.3, SVG Export Plug-In . SVG Version: 6.00 Build 0)  -->
<svg version="1.1" xmlns="http://www.w3.org/2000/svg" xmlns:xlink="http://www.w3.org/1999/xlink" x="0px" y="0px"
	 width="8133.3px" height="5000.9px" viewBox="0 0 8133.3 5000.9" style="enable-background:new 0 0 8133.3 5000.9;"
	 xml:space="preserve">
<style type="text/css">
	.st0{fill:none;}
	.st1{fill:#C6DD7F;}
	.st2{fill:#E9DDB7;}
	.st3{fill:#A6D0E4;}
	.st4{fill:#FFFFFF;}
	.st5{fill:none;stroke:#000000;stroke-width:10;stroke-miterlimit:10;}
	.st6{fill:none;stroke:#000000;stroke-width:10;stroke-miterlimit:10;stroke-dasharray:107.8883,107.8883;}
	.st7{fill:none;stroke:#000000;stroke-width:10;stroke-miterlimit:10;stroke-dasharray:110.862,110.862;}
	.st8{fill:#4D4D4D;}
	.st9{font-family:'Microsoft-Yi-Baiti';}
	.st10{font-size:140px;}
	.st11{fill:#22B573;}
	.st12{fill:#E6E6E6;stroke:#000000;stroke-width:10;stroke-miterlimit:10;}
	.st13{fill:#CCCCCC;stroke:#000000;stroke-width:6;stroke-miterlimit:10;}
	.st14{fill:#999999;stroke:#000000;stroke-width:6;stroke-miterlimit:10;}
	.st15{fill:#808080;stroke:#000000;stroke-width:6;stroke-miterlimit:10;}
	.st16{fill:#666666;stroke:#000000;stroke-width:6;stroke-miterlimit:10;}
	.st17{fill:#E6E6E6;stroke:#000000;stroke-width:6;stroke-miterlimit:10;}
	.st18{fill:none;stroke:#0000FF;stroke-width:3;stroke-miterlimit:10;}
	.st19{fill:#22B573;stroke:#000000;stroke-width:10;stroke-miterlimit:10;}
	.st20{fill:#FFFFFF;stroke:#000000;stroke-width:10;stroke-miterlimit:10;}
	.st21{fill:#F15A24;}
	.st22{fill:none;stroke:#F15A24;stroke-width:5;stroke-miterlimit:10;}
	.st23{fill:#E6E6E6;}
	.st24{display:none;}
	.st25{fill:#ED1C24;stroke:#FFFFFF;stroke-width:2;stroke-miterlimit:10;}
	.st26{fill:#F7931E;stroke:#FFFFFF;stroke-width:2;stroke-miterlimit:10;}
	.st27{fill:none;stroke:#000000;stroke-width:20;stroke-miterlimit:10;}
	.st28{fill:#FFFFFF;stroke:#754C24;stroke-width:4;stroke-miterlimit:10;}
	.st29{fill:url(#Alyssa);stroke:#754C24;stroke-width:4;stroke-miterlimit:10;}
	.st30{fill:#FFFFFF;stroke:#000000;stroke-miterlimit:10;}
	.st31{stroke:#000000;stroke-miterlimit:10;}
	.st32{stroke:#FFFFFF;stroke-miterlimit:10;}
</style>
<pattern  x="199.4" y="167.2" width="144.1" height="138.4" patternUnits="userSpaceOnUse" id="Alyssa" viewBox="100 -216.8 144.1 138.4" style="overflow:visible;">
	<g>
		<rect x="100" y="-216.8" class="st0" width="144.1" height="138.4"/>
		<g>
			<path class="st1" d="M311-58.3c-11.8-1.4-19.4,0.3-22.7,3.1c-3,2.5-5,5.4-2.2,11.9c2.9,7.1,1.5,14.7-5.5,15.9
				c-6.2,1-10.9-4.8-11.2-12.3c-0.2-5.2-1.9-8.3-5.5-7.6c-3.6,0.7-4.6,5.9-3.6,11.8c1.4,8.1,5.5,11.8,6.2,20.2
				c0.5,6.1-2.9,13.7-12.5,15c-9.3,1.4-15.9-4.3-16.6-10.5c-0.7-6.6,3.6-10.9,3.1-17.6c-0.5-6.7-4-10.2-5.9-17.3
				c-2.8-10.5,1.2-19,7.8-22.7c14.7-8.1,22.8,3.6,36,1.6c10.9-1.7,23.3-18.2,33-19.5c8.2-1.2,13.8,4.7,15,14
				C327.6-63,321.7-57.1,311-58.3z M268.8-57.8c0-2.3-1.9-4.2-4.2-4.2c-2.3,0-4.2,1.9-4.2,4.2s1.9,4.2,4.2,4.2
				C267-53.6,268.8-55.5,268.8-57.8z M318.3-73.2c0-1-0.8-1.7-1.7-1.7s-1.7,0.8-1.7,1.7s0.8,1.7,1.7,1.7S318.3-72.2,318.3-73.2z"/>
		</g>
		<g>
			<path class="st2" d="M148.8-77.5c0,7.2,4.6,13.8-1,16.3c-8.5,3.8-28-14.3-28-36.2c0-12,8.7-19,17.8-19c12.3,0,18,8.2,18,17.5
				C155.6-89.5,148.8-85.7,148.8-77.5z M143.4-82.9c0-1.1-0.9-2.1-2.1-2.1c-1.1,0-2.1,0.9-2.1,2.1c0,1.1,0.9,2.1,2.1,2.1
				C142.5-80.8,143.4-81.7,143.4-82.9z"/>
			<path class="st3" d="M223.5-54c-7.9,2.7-19.4-15.3-17.7-27c1.2-8.2,7.1-13.2,13.1-14.2c7.5-1.3,12.9,2.6,13.3,7.2
				c0.5,6.3-3.6,7.5-4.2,15C227.4-65.9,231.7-56.8,223.5-54z M219.7-81.5c0-1.4-1.2-2.6-2.6-2.6c-1.4,0-2.6,1.2-2.6,2.6
				c0,1.4,1.2,2.6,2.6,2.6C218.5-78.9,219.7-80.1,219.7-81.5z"/>
			<path class="st2" d="M119.4-76.5c0,1.4-1.2,2.6-2.6,2.6c-1.4,0-2.6-1.2-2.6-2.6s1.2-2.6,2.6-2.6
				C118.2-79.1,119.4-77.9,119.4-76.5z"/>
			<path class="st3" d="M184.6-84.2c0.7,8.1,12.7,7,17.9,14.2c10.5,14.5-1.2,46.4-21.6,46.4c-11.7,0-24.2-9.7-24.2-29.2
				c0-15.8,10.2-21.5,8.3-42.2c-1-10.8-12.5-20.3-12.5-34.8c0-5.9,3.6-13.4,11.6-13.4c7.1,0,10.8,6,10.8,12.9c0,6.8-5.4,15.7,1.4,19
				c5.2,2.6,13.2-4.8,19.5-6.8c5.2-1.6,12.4,0.2,14.8,8.5c2.5,8.9-3.3,14.7-11.6,16.7C192.5-91.3,184-90.6,184.6-84.2z M168.6-114.7
				c0-1.8-1.5-3.3-3.3-3.3c-1.8,0-3.3,1.5-3.3,3.3c0,1.8,1.5,3.3,3.3,3.3C167.1-111.5,168.6-112.9,168.6-114.7z M194.6-105.1
				c1.3,0,2.3-1,2.3-2.3c0-1.3-1-2.3-2.3-2.3c-1.3,0-2.3,1-2.3,2.3C192.2-106.1,193.3-105.1,194.6-105.1z M174.6-45.4
				c0-1.8-1.5-3.3-3.3-3.3c-1.8,0-3.3,1.5-3.3,3.3c0,1.8,1.5,3.3,3.3,3.3C173.1-42.1,174.6-43.6,174.6-45.4z"/>
			<path class="st1" d="M166.9-58.3c-11.8-1.4-19.4,0.3-22.7,3.1c-3,2.5-5,5.4-2.2,11.9c2.9,7.1,1.5,14.7-5.5,15.9
				c-6.2,1-10.9-4.8-11.2-12.3c-0.2-5.2-1.9-8.3-5.5-7.6c-3.6,0.7-4.6,5.9-3.6,11.8c1.4,8.1,5.5,11.8,6.2,20.2
				c0.5,6.1-2.9,13.7-12.5,15c-9.3,1.4-15.9-4.3-16.6-10.5c-0.7-6.6,3.6-10.9,3.1-17.6c-0.5-6.7-4-10.2-5.9-17.3
				c-2.8-10.5,1.2-19,7.8-22.7c14.7-8.1,22.8,3.6,36,1.6c10.9-1.7,23.3-18.2,33-19.5c8.2-1.2,13.8,4.7,15,14
				C183.5-63,177.6-57.1,166.9-58.3z M124.7-57.8c0-2.3-1.9-4.2-4.1-4.2c-2.3,0-4.2,1.9-4.2,4.2s1.9,4.2,4.2,4.2
				C122.9-53.6,124.7-55.5,124.7-57.8z M174.2-73.2c0-1-0.8-1.7-1.7-1.7c-1,0-1.7,0.8-1.7,1.7s0.8,1.7,1.7,1.7
				C173.4-71.4,174.2-72.2,174.2-73.2z"/>
		</g>
		<g>
			<path class="st3" d="M290.3-104.8c0,6.2-4.2,10.7-8.6,11.6c-4.5,0.9-8.3-1.3-13,1.2c-4.8,2.6-7.1,11.1-16.8,11.1
				c-8,0-15.2-8-15.2-18.8c0-20.2,13.1-29.2,25.6-29.2C278.9-129.1,290.3-116.4,290.3-104.8z M270.6-119.2c0-2.1-1.7-3.8-3.8-3.8
				c-2.1,0-3.8,1.7-3.8,3.8c0,2.1,1.7,3.8,3.8,3.8C268.9-115.4,270.6-117.1,270.6-119.2z"/>
			<path class="st1" d="M311-196.7c-11.8-1.4-19.4,0.3-22.7,3.1c-3,2.5-5,5.4-2.2,11.9c2.9,7.1,1.5,14.7-5.5,15.9
				c-6.2,1-10.9-4.8-11.2-12.3c-0.2-5.2-1.9-8.3-5.5-7.6c-3.6,0.7-4.6,5.9-3.6,11.8c1.4,8.1,5.5,11.8,6.2,20.2
				c0.5,6.1-2.9,13.7-12.5,15c-9.3,1.4-15.9-4.3-16.6-10.5c-0.7-6.6,3.6-10.9,3.1-17.6c-0.5-6.7-4-10.2-5.9-17.3
				c-2.8-10.5,1.2-19,7.8-22.7c14.7-8.1,22.8,3.6,36,1.6c10.9-1.7,23.3-18.2,33-19.5c8.2-1.2,13.8,4.7,15,14
				C327.6-201.3,321.7-195.4,311-196.7z M268.8-196.2c0-2.3-1.9-4.2-4.2-4.2c-2.3,0-4.2,1.9-4.2,4.2c0,2.3,1.9,4.2,4.2,4.2
				C267-192,268.8-193.9,268.8-196.2z M318.3-211.5c0-1-0.8-1.7-1.7-1.7s-1.7,0.8-1.7,1.7c0,1,0.8,1.7,1.7,1.7
				S318.3-210.6,318.3-211.5z"/>
		</g>
		<g>
			<path class="st3" d="M131.8-133.2c-14,2-21.2-13.3-17.7-20.3c3.7-7.3,12.1-4.2,19.5-4.2c9.7,0,16.4-7.6,20.4-2.3
				C158.3-154.4,149-135.6,131.8-133.2z M132.3-150.7c0-1.2-1-2.2-2.2-2.2c-1.2,0-2.2,1-2.2,2.2c0,1.2,1,2.2,2.2,2.2
				C131.3-148.4,132.3-149.4,132.3-150.7z"/>
			<path class="st2" d="M148.8-215.9c0,7.2,4.6,13.8-1,16.3c-8.5,3.8-28-14.3-28-36.2c0-12,8.7-19,17.8-19c12.3,0,18,8.2,18,17.5
				C155.6-227.9,148.8-224.1,148.8-215.9z M143.4-221.2c0-1.1-0.9-2.1-2.1-2.1c-1.1,0-2.1,0.9-2.1,2.1c0,1.1,0.9,2.1,2.1,2.1
				C142.5-219.2,143.4-220.1,143.4-221.2z"/>
			<path class="st3" d="M146.2-104.8c0,6.2-4.2,10.7-8.6,11.6c-4.5,0.9-8.3-1.3-13,1.2c-4.8,2.6-7.1,11.1-16.8,11.1
				c-8,0-15.2-8-15.2-18.8c0-20.2,13.1-29.2,25.6-29.2C134.7-129.1,146.2-116.4,146.2-104.8z M126.4-119.2c0-2.1-1.7-3.8-3.8-3.8
				c-2.1,0-3.8,1.7-3.8,3.8c0,2.1,1.7,3.8,3.8,3.8C124.7-115.4,126.4-117.1,126.4-119.2z"/>
			<path class="st1" d="M145.5-128.5c0,1.3-1.1,2.4-2.4,2.4c-1.3,0-2.4-1.1-2.4-2.4c0-1.3,1.1-2.4,2.4-2.4
				C144.4-131,145.5-129.9,145.5-128.5z"/>
			<path class="st3" d="M229.2-147c-3.2,4.7,1,10.7-1.4,15.2c-2.4,4.5-6.7,5-9.9,2.6c-3.6-2.8-3.4-6.6-8.3-8.8
				c-5.5-2.5-18,2.2-19.7-7.3c-0.9-4.8,2.4-8.6,7.3-9.7c6.1-1.4,9.4-0.2,15.4-3.1c6.1-2.9,11.2-9,22.1-12.1
				c10.4-3,16.1,1.6,16.6,5.9C252.3-155.9,234.2-154.4,229.2-147z M226.9-154.5c0-1.2-1-2.2-2.2-2.2c-1.2,0-2.2,1-2.2,2.2
				c0,1.2,1,2.2,2.2,2.2C225.9-152.2,226.9-153.2,226.9-154.5z"/>
			<path class="st2" d="M256.1-107.9c0,17.2-14.5,25.5-27,22.8c-10.3-2.2-12.8-17.3-16.7-26.2c-3.7-8.6-8.8-22.5-20.2-22.5
				c-11.2,0-12.8,14.5-23.7,14.5c-11,0-24.5-15.7-24.5-39.7c0-14.7,9.8-31.5,20.8-30.7c11.7,0.8,4.5,19.7,15.3,19.7
				c9.5,0,7.9-16.3,9.2-23.3c1.7-9,6.8-14.2,18.5-13.2c14.4,1.2,22.3,13.5,18.9,23.3c-4,11.5-23.9,17.3-21.5,30.5
				c1.3,7.6,13,12,26,16.2C245.8-131.7,256.1-125,256.1-107.9z M211.2-183.7c0,1.8,1.5,3.3,3.3,3.3c1.8,0,3.3-1.5,3.3-3.3
				s-1.5-3.3-3.3-3.3C212.6-187,211.2-185.5,211.2-183.7z M164.5-158.8c0-1-0.8-1.7-1.7-1.7c-1,0-1.7,0.8-1.7,1.7
				c0,1,0.8,1.7,1.7,1.7C163.7-157.1,164.5-157.8,164.5-158.8z M182-148.1c0-2.1-1.7-3.8-3.8-3.8c-2.1,0-3.8,1.7-3.8,3.8
				c0,2.1,1.7,3.8,3.8,3.8C180.2-144.3,182-146,182-148.1z M201.8-163.6c0-0.9-0.7-1.6-1.6-1.6c-0.9,0-1.6,0.7-1.6,1.6
				c0,0.9,0.7,1.6,1.6,1.6C201.1-162.1,201.8-162.8,201.8-163.6z M231.5-108.9c0-1.8-1.4-3.2-3.2-3.2c-1.8,0-3.2,1.4-3.2,3.2
				c0,1.8,1.4,3.2,3.2,3.2C230.1-105.8,231.5-107.2,231.5-108.9z"/>
			<path class="st3" d="M223.5-192.4c-7.9,2.7-19.4-15.3-17.7-27c1.2-8.2,7.1-13.2,13.1-14.2c7.5-1.3,12.9,2.6,13.3,7.2
				c0.5,6.3-3.6,7.5-4.2,15C227.4-204.3,231.7-195.2,223.5-192.4z M219.7-219.9c0-1.4-1.2-2.6-2.6-2.6c-1.4,0-2.6,1.2-2.6,2.6
				c0,1.4,1.2,2.6,2.6,2.6C218.5-217.3,219.7-218.4,219.7-219.9z"/>
			<path class="st2" d="M119.4-214.8c0,1.4-1.2,2.6-2.6,2.6c-1.4,0-2.6-1.2-2.6-2.6c0-1.4,1.2-2.6,2.6-2.6
				C118.2-217.4,119.4-216.3,119.4-214.8z"/>
			<path class="st2" d="M253.3-128.1c0-8.4-5.1-15.2-11.3-15.2s-11.3,6.8-11.3,15.2c0,8.4,5.1,12.4,11.3,12.4
				S253.3-119.7,253.3-128.1z"/>
			<path class="st3" d="M184.6-222.6c0.7,8.1,12.7,7,17.9,14.2c10.5,14.5-1.2,46.4-21.6,46.4c-11.7,0-24.2-9.7-24.2-29.2
				c0-15.8,10.2-21.5,8.3-42.2c-1-10.8-12.5-20.3-12.5-34.8c0-5.9,3.6-13.4,11.6-13.4c7.1,0,10.8,6,10.8,12.9c0,6.8-5.4,15.7,1.4,19
				c5.2,2.6,13.2-4.8,19.5-6.8c5.2-1.6,12.4,0.2,14.8,8.5c2.5,8.9-3.3,14.7-11.6,16.7C192.5-229.7,184-229,184.6-222.6z
				 M168.6-253.1c0-1.8-1.5-3.3-3.3-3.3c-1.8,0-3.3,1.5-3.3,3.3c0,1.8,1.5,3.3,3.3,3.3C167.1-249.8,168.6-251.3,168.6-253.1z
				 M194.6-243.4c1.3,0,2.3-1,2.3-2.3c0-1.3-1-2.3-2.3-2.3c-1.3,0-2.3,1-2.3,2.3C192.2-244.5,193.3-243.4,194.6-243.4z M174.6-183.7
				c0-1.8-1.5-3.3-3.3-3.3c-1.8,0-3.3,1.5-3.3,3.3c0,1.8,1.5,3.3,3.3,3.3C173.1-180.5,174.6-181.9,174.6-183.7z"/>
			<path class="st1" d="M166.9-196.7c-11.8-1.4-19.4,0.3-22.7,3.1c-3,2.5-5,5.4-2.2,11.9c2.9,7.1,1.5,14.7-5.5,15.9
				c-6.2,1-10.9-4.8-11.2-12.3c-0.2-5.2-1.9-8.3-5.5-7.6c-3.6,0.7-4.6,5.9-3.6,11.8c1.4,8.1,5.5,11.8,6.2,20.2
				c0.5,6.1-2.9,13.7-12.5,15c-9.3,1.4-15.9-4.3-16.6-10.5c-0.7-6.6,3.6-10.9,3.1-17.6c-0.5-6.7-4-10.2-5.9-17.3
				c-2.8-10.5,1.2-19,7.8-22.7c14.7-8.1,22.8,3.6,36,1.6c10.9-1.7,23.3-18.2,33-19.5c8.2-1.2,13.8,4.7,15,14
				C183.5-201.3,177.6-195.4,166.9-196.7z M124.7-196.2c0-2.3-1.9-4.2-4.1-4.2c-2.3,0-4.2,1.9-4.2,4.2c0,2.3,1.9,4.2,4.2,4.2
				C122.9-192,124.7-193.9,124.7-196.2z M174.2-211.5c0-1-0.8-1.7-1.7-1.7c-1,0-1.7,0.8-1.7,1.7c0,1,0.8,1.7,1.7,1.7
				C173.4-209.8,174.2-210.6,174.2-211.5z"/>
			<path class="st1" d="M230.2-174.4c0,0.8-0.6,1.4-1.4,1.4c-0.8,0-1.4-0.6-1.4-1.4c0-0.8,0.6-1.4,1.4-1.4
				C229.6-175.7,230.2-175.1,230.2-174.4z"/>
			<path class="st2" d="M235.7-212.8c0,1.2-1,2.2-2.2,2.2s-2.3-1-2.3-2.2c0-1.2,1-2.2,2.3-2.2S235.7-214,235.7-212.8z"/>
			<path class="st3" d="M152.2-189.6c0,0.7-0.5,1.2-1.2,1.2s-1.2-0.5-1.2-1.2s0.5-1.2,1.2-1.2S152.2-190.2,152.2-189.6z"/>
			<path class="st3" d="M148.6-121.1c0,0.8-0.6,1.4-1.4,1.4s-1.4-0.6-1.4-1.4c0-0.8,0.6-1.4,1.4-1.4S148.6-121.9,148.6-121.1z"/>
			<path class="st2" d="M233.1-143.1c0,0.7-0.5,1.2-1.2,1.2c-0.7,0-1.2-0.5-1.2-1.2c0-0.7,0.5-1.2,1.2-1.2
				C232.6-144.3,233.1-143.7,233.1-143.1z"/>
			<path class="st1" d="M195.9-125.1c0,1.9-1.5,3.4-3.4,3.4c-1.9,0-3.4-1.5-3.4-3.4c0-1.9,1.5-3.4,3.4-3.4
				C194.3-128.5,195.9-127,195.9-125.1z"/>
			<path class="st2" d="M200.8-85.3c0,1.2-0.9,2.1-2.1,2.1s-2.1-0.9-2.1-2.1s0.9-2.1,2.1-2.1S200.8-86.4,200.8-85.3z"/>
			<path class="st2" d="M162-91.6c0,0.9-0.7,1.6-1.6,1.6c-0.9,0-1.6-0.7-1.6-1.6c0-0.9,0.7-1.6,1.6-1.6
				C161.3-93.1,162-92.4,162-91.6z"/>
			<circle class="st1" cx="233.1" cy="-205.6" r="2.6"/>
			<circle class="st3" cx="223.1" cy="-170.8" r="2.4"/>
			<path class="st2" d="M127.7-164.2c0,1.4-1.2,2.6-2.6,2.6c-1.4,0-2.6-1.2-2.6-2.6c0-1.4,1.2-2.6,2.6-2.6
				C126.5-166.8,127.7-165.6,127.7-164.2z"/>
			<path class="st3" d="M122.7-171.3c0,0.7-0.6,1.3-1.3,1.3c-0.7,0-1.3-0.6-1.3-1.3s0.6-1.3,1.3-1.3
				C122.1-172.6,122.7-172,122.7-171.3z"/>
			<path class="st2" d="M186.9-119.4c0,0.9-0.7,1.6-1.6,1.6c-0.9,0-1.6-0.7-1.6-1.6c0-0.9,0.7-1.6,1.6-1.6
				C186.2-120.9,186.9-120.2,186.9-119.4z"/>
		</g>
		<g>
			<path class="st3" d="M85-147c-3.2,4.7,1,10.7-1.4,15.2c-2.4,4.5-6.7,5-9.9,2.6c-3.6-2.8-3.4-6.6-8.3-8.8
				c-5.5-2.5-18,2.2-19.7-7.3c-0.9-4.8,2.4-8.6,7.3-9.7c6.1-1.4,9.4-0.2,15.4-3.1c6.1-2.9,11.2-9,22.1-12.1
				c10.4-3,16.1,1.6,16.6,5.9C108.2-155.9,90-154.4,85-147z M82.8-154.5c0-1.2-1-2.2-2.2-2.2c-1.2,0-2.2,1-2.2,2.2
				c0,1.2,1,2.2,2.2,2.2C81.8-152.2,82.8-153.2,82.8-154.5z"/>
			<path class="st2" d="M112-107.9c0,17.2-14.5,25.5-27,22.8c-10.3-2.2-12.8-17.3-16.7-26.2c-3.7-8.6-8.8-22.5-20.2-22.5
				c-11.2,0-12.8,14.5-23.7,14.5c-11,0-24.5-15.7-24.5-39.7c0-14.7,9.8-31.5,20.8-30.7c11.7,0.8,4.5,19.7,15.3,19.7
				c9.5,0,7.9-16.3,9.2-23.3c1.7-9,6.8-14.2,18.5-13.2c14.4,1.2,22.3,13.5,18.9,23.3c-4,11.5-23.9,17.3-21.5,30.5
				c1.3,7.6,13,12,26,16.2C101.7-131.7,112-125,112-107.9z M67-183.7c0,1.8,1.5,3.3,3.3,3.3c1.8,0,3.3-1.5,3.3-3.3s-1.5-3.3-3.3-3.3
				C68.5-187,67-185.5,67-183.7z M20.4-158.8c0-1-0.8-1.7-1.7-1.7c-1,0-1.7,0.8-1.7,1.7c0,1,0.8,1.7,1.7,1.7
				C19.6-157.1,20.4-157.8,20.4-158.8z M37.8-148.1c0-2.1-1.7-3.8-3.8-3.8c-2.1,0-3.8,1.7-3.8,3.8c0,2.1,1.7,3.8,3.8,3.8
				C36.1-144.3,37.8-146,37.8-148.1z M57.7-163.6c0-0.9-0.7-1.6-1.6-1.6c-0.9,0-1.6,0.7-1.6,1.6c0,0.9,0.7,1.6,1.6,1.6
				C57-162.1,57.7-162.8,57.7-163.6z M87.4-108.9c0-1.8-1.4-3.2-3.2-3.2c-1.8,0-3.2,1.4-3.2,3.2c0,1.8,1.4,3.2,3.2,3.2
				C85.9-105.8,87.4-107.2,87.4-108.9z"/>
			<path class="st2" d="M109.2-128.1c0-8.4-5.1-15.2-11.3-15.2s-11.3,6.8-11.3,15.2c0,8.4,5.1,12.4,11.3,12.4
				S109.2-119.7,109.2-128.1z"/>
		</g>
	</g>
</pattern>
<g id="Lock_Boxes">
	<g>
		<rect x="6831.9" y="1315.6" class="st4" width="1091" height="1117.8"/>
		<g>
			<polyline class="st5" points="7922.9,2373.3 7922.9,2433.3 7862.9,2433.3 			"/>
			<line class="st6" x1="7755" y1="2433.3" x2="6945.8" y2="2433.3"/>
			<polyline class="st5" points="6891.9,2433.3 6831.9,2433.3 6831.9,2373.3 			"/>
			<line class="st7" x1="6831.9" y1="2262.5" x2="6831.9" y2="1431"/>
			<polyline class="st5" points="6831.9,1375.6 6831.9,1315.6 6891.9,1315.6 			"/>
			<line class="st6" x1="6999.8" y1="1315.6" x2="7809" y2="1315.6"/>
			<polyline class="st5" points="7862.9,1315.6 7922.9,1315.6 7922.9,1375.6 			"/>
			<line class="st7" x1="7922.9" y1="1486.4" x2="7922.9" y2="2317.9"/>
		</g>
	</g>
	<g>
		<rect x="5661.6" y="1315.6" class="st4" width="1091" height="1117.8"/>
		<g>
			<polyline class="st5" points="6752.6,2373.3 6752.6,2433.3 6692.6,2433.3 			"/>
			<line class="st6" x1="6584.8" y1="2433.3" x2="5775.6" y2="2433.3"/>
			<polyline class="st5" points="5721.6,2433.3 5661.6,2433.3 5661.6,2373.3 			"/>
			<line class="st7" x1="5661.6" y1="2262.5" x2="5661.6" y2="1431"/>
			<polyline class="st5" points="5661.6,1375.6 5661.6,1315.6 5721.6,1315.6 			"/>
			<line class="st6" x1="5829.5" y1="1315.6" x2="6638.7" y2="1315.6"/>
			<polyline class="st5" points="6692.6,1315.6 6752.6,1315.6 6752.6,1375.6 			"/>
			<line class="st7" x1="6752.6" y1="1486.4" x2="6752.6" y2="2317.9"/>
		</g>
	</g>
	<g>
		<rect x="5645.1" y="2491.3" class="st4" width="1091" height="1117.8"/>
		<g>
			<polyline class="st5" points="6736.1,3549.1 6736.1,3609.1 6676.1,3609.1 			"/>
			<line class="st6" x1="6568.3" y1="3609.1" x2="5759.1" y2="3609.1"/>
			<polyline class="st5" points="5705.1,3609.1 5645.1,3609.1 5645.1,3549.1 			"/>
			<line class="st7" x1="5645.1" y1="3438.2" x2="5645.1" y2="2606.8"/>
			<polyline class="st5" points="5645.1,2551.3 5645.1,2491.3 5705.1,2491.3 			"/>
			<line class="st6" x1="5813" y1="2491.3" x2="6622.2" y2="2491.3"/>
			<polyline class="st5" points="6676.1,2491.3 6736.1,2491.3 6736.1,2551.3 			"/>
			<line class="st7" x1="6736.1" y1="2662.2" x2="6736.1" y2="3493.7"/>
		</g>
	</g>
	<g>
		<rect x="6831.9" y="2491.3" class="st4" width="1091" height="1117.8"/>
		<g>
			<polyline class="st5" points="7922.9,3549.1 7922.9,3609.1 7862.9,3609.1 			"/>
			<line class="st6" x1="7755" y1="3609.1" x2="6945.8" y2="3609.1"/>
			<polyline class="st5" points="6891.9,3609.1 6831.9,3609.1 6831.9,3549.1 			"/>
			<line class="st7" x1="6831.9" y1="3438.2" x2="6831.9" y2="2606.8"/>
			<polyline class="st5" points="6831.9,2551.3 6831.9,2491.3 6891.9,2491.3 			"/>
			<line class="st6" x1="6999.8" y1="2491.3" x2="7809" y2="2491.3"/>
			<polyline class="st5" points="7862.9,2491.3 7922.9,2491.3 7922.9,2551.3 			"/>
			<line class="st7" x1="7922.9" y1="2662.2" x2="7922.9" y2="3493.7"/>
		</g>
	</g>
	<g>
		<rect x="5645.1" y="3658" class="st4" width="1091" height="1117.8"/>
		<g>
			<polyline class="st5" points="6736.1,4715.8 6736.1,4775.8 6676.1,4775.8 			"/>
			<line class="st6" x1="6568.3" y1="4775.8" x2="5759.1" y2="4775.8"/>
			<polyline class="st5" points="5705.1,4775.8 5645.1,4775.8 5645.1,4715.8 			"/>
			<line class="st7" x1="5645.1" y1="4604.9" x2="5645.1" y2="3773.4"/>
			<polyline class="st5" points="5645.1,3718 5645.1,3658 5705.1,3658 			"/>
			<line class="st6" x1="5813" y1="3658" x2="6622.2" y2="3658"/>
			<polyline class="st5" points="6676.1,3658 6736.1,3658 6736.1,3718 			"/>
			<line class="st7" x1="6736.1" y1="3828.9" x2="6736.1" y2="4660.3"/>
		</g>
	</g>
	<g>
		<rect x="6831.9" y="3658" class="st4" width="1091" height="1117.8"/>
		<g>
			<polyline class="st5" points="7922.9,4715.8 7922.9,4775.8 7862.9,4775.8 			"/>
			<line class="st6" x1="7755" y1="4775.8" x2="6945.8" y2="4775.8"/>
			<polyline class="st5" points="6891.9,4775.8 6831.9,4775.8 6831.9,4715.8 			"/>
			<line class="st7" x1="6831.9" y1="4604.9" x2="6831.9" y2="3773.4"/>
			<polyline class="st5" points="6831.9,3718 6831.9,3658 6891.9,3658 			"/>
			<line class="st6" x1="6999.8" y1="3658" x2="7809" y2="3658"/>
			<polyline class="st5" points="7862.9,3658 7922.9,3658 7922.9,3718 			"/>
			<line class="st7" x1="7922.9" y1="3828.9" x2="7922.9" y2="4660.3"/>
		</g>
	</g>
	<g>
		<rect x="5669.8" y="89" class="st4" width="1091" height="1117.8"/>
		<g>
			<polyline class="st5" points="6760.8,1146.7 6760.8,1206.7 6700.8,1206.7 			"/>
			<line class="st6" x1="6593" y1="1206.7" x2="5783.8" y2="1206.7"/>
			<polyline class="st5" points="5729.8,1206.7 5669.8,1206.7 5669.8,1146.7 			"/>
			<line class="st7" x1="5669.8" y1="1035.9" x2="5669.8" y2="204.4"/>
			<polyline class="st5" points="5669.8,149 5669.8,89 5729.8,89 			"/>
			<line class="st6" x1="5837.7" y1="89" x2="6646.9" y2="89"/>
			<polyline class="st5" points="6700.8,89 6760.8,89 6760.8,149 			"/>
			<line class="st7" x1="6760.8" y1="259.8" x2="6760.8" y2="1091.3"/>
		</g>
	</g>
	<g>
		<rect x="6831.9" y="84.3" class="st4" width="1091" height="1117.8"/>
		<g>
			<polyline class="st5" points="7922.9,1142 7922.9,1202 7862.9,1202 			"/>
			<line class="st6" x1="7755" y1="1202" x2="6945.8" y2="1202"/>
			<polyline class="st5" points="6891.9,1202 6831.9,1202 6831.9,1142 			"/>
			<line class="st7" x1="6831.9" y1="1031.2" x2="6831.9" y2="199.7"/>
			<polyline class="st5" points="6831.9,144.3 6831.9,84.3 6891.9,84.3 			"/>
			<line class="st6" x1="6999.8" y1="84.3" x2="7809" y2="84.3"/>
			<polyline class="st5" points="7862.9,84.3 7922.9,84.3 7922.9,144.3 			"/>
			<line class="st7" x1="7922.9" y1="255.1" x2="7922.9" y2="1086.6"/>
		</g>
	</g>
	<text transform="matrix(1 0 0 1 274.7031 3050.2205)"><tspan x="0" y="0" class="st8 st9 st10">Rafter</tspan><tspan x="0" y="168" class="st8 st9 st10">Elev.</tspan><tspan x="0" y="336" class="st8 st9 st10">from </tspan><tspan x="0" y="504" class="st8 st9 st10">Floor</tspan></text>
	<text transform="matrix(1 0 0 1 5888.2939 959.6033)"><tspan x="0" y="0" class="st9 st10">Mannequins:</tspan><tspan x="42.8" y="168" class="st9 st10">1’5” x 8”</tspan></text>
	<text transform="matrix(1 0 0 1 7010.2095 937.5904)"><tspan x="0" y="0" class="st9 st10">Piezo Carpet: </tspan><tspan x="20.3" y="168" class="st9 st10">7’10” x 6’1”</tspan></text>
	<text transform="matrix(1 0 0 1 5974.7544 2200.1919)"><tspan x="0" y="0" class="st9 st10">Labyrinth:</tspan><tspan x="-30" y="168" class="st9 st10">37’ x 37’</tspan></text>
	<text transform="matrix(1 0 0 1 7032.2886 2200.1919)"><tspan x="0" y="0" class="st9 st10">Dome Pieces:</tspan><tspan x="-59.3" y="168" class="st9 st10">[Size estimated]</tspan></text>
</g>
<g id="Room">
	<g>
		<rect x="199.4" y="167.7" class="st11" width="0.5" height="4154"/>
		<polygon class="st4" points="199.9,167.7 199.4,167.7 199.4,4321.7 199.9,4321.7 199.9,167.7 		"/>
	</g>
	<path class="st12" d="M5142.9,167.7v4154H2251.3v65.6h-508v-65.6H199.9V1497.6c0-87.1,0-174.2,0-261.3c0-356.2,0-712.4,0-1068.7
		C1847.5,167.7,3495.2,167.7,5142.9,167.7z"/>
	<rect x="620.9" y="469.7" class="st13" width="346" height="2761"/>
	<rect x="967.4" y="469.7" class="st14" width="258.4" height="3452"/>
	<rect x="1225.9" y="469.7" class="st15" width="258.4" height="3452"/>
	<rect x="1484.9" y="650.7" class="st16" width="258.4" height="3099"/>
	<rect x="620.9" y="3230.7" class="st17" width="346" height="692"/>
	<line class="st18" x1="966.9" y1="3233.7" x2="966.7" y2="3233.7"/>
	<path class="st19" d="M62.8,1464.6"/>
	<path class="st20" d="M2611.1,4310.7v32.5c-0.7,18.8-3.6,43.3-12.4,70.6c-6.4,19.9-14.4,36.7-22,50.1l-228.4-120.7v-29.5"/>
	<path class="st20" d="M204.7,1499h-32.3c-20.7-0.7-47.6-3.6-77.8-12.4c-21.9-6.4-40.4-14.4-55.2-22l133-228.3h32.3"/>
	<path class="st20" d="M205.5,4053.1h-32.3c-20.7-0.7-47.6-3.6-77.8-12.4c-21.9-6.4-40.4-14.4-55.2-22l133-228.3h32.3"/>
	<g id="Dimensions">
		<text transform="matrix(1 0 0 1 5176.7563 2244.6917)" class="st21 st9 st10">48’1”</text>
		<text transform="matrix(1 0 0 1 2570.532 129.3453)" class="st21 st9 st10">57’1”</text>
		<g>
			<g>
				<line class="st22" x1="235.2" y1="79.2" x2="2531" y2="79.2"/>
				<g>
					<polygon class="st21" points="242.5,104.1 199.4,79.2 242.5,54.2 					"/>
				</g>
			</g>
		</g>
		<g>
			<g>
				<line class="st22" x1="5113" y1="79.2" x2="2923.6" y2="79.2"/>
				<g>
					<polygon class="st21" points="5105.7,54.2 5148.8,79.2 5105.7,104.1 					"/>
				</g>
			</g>
		</g>
		<g>
			<g>
				<line class="st22" x1="5235.6" y1="201.8" x2="5235.6" y2="1983.3"/>
				<g>
					<polygon class="st21" points="5210.7,209.1 5235.6,165.9 5260.5,209.1 					"/>
				</g>
			</g>
		</g>
		<g>
			<g>
				<line class="st22" x1="5235.6" y1="4285.8" x2="5235.6" y2="2360.2"/>
				<g>
					<polygon class="st21" points="5260.5,4278.5 5235.6,4321.7 5210.7,4278.5 					"/>
				</g>
			</g>
		</g>
	</g>
	<text transform="matrix(1 0 0 1 1535.7695 3132.5171)" class="st4 st9 st10">8”</text>
	<text transform="matrix(1 0 0 1 1255.7695 3132.5171)" class="st4 st9 st10">16” </text>
	<text transform="matrix(1 0 0 1 1000.7695 3132.5171)" class="st23 st9 st10">24” </text>
	<text transform="matrix(1 0 0 1 698.4509 3132.5171)" class="st8 st9 st10">32”</text>
	<text transform="matrix(1 0 0 1 695.298 3609.0996)" class="st8 st9 st10">40”</text>
</g>
<g id="Image" class="st24">
	
		<image style="display:inline;overflow:visible;opacity:0.28;" width="3224" height="2714" xlink:href="E89971A4.png"  transform="matrix(1.5306 0 0 1.5306 199.3554 167.192)">
	</image>
</g>
<g id="Text">
	<text transform="matrix(1 0 0 1 205.5467 4636.9131)"><tspan x="0" y="0" class="st9 st10">Drawn at 10:1 scale. Move parts around freely by clicking and dragging, </tspan><tspan x="0" y="168" class="st9 st10">or add parts using top-down dimensions. </tspan></text>
</g>
<g id="Mannequin">
	<g>
		<ellipse class="st25" cx="6178.2" cy="536.6" rx="28.8" ry="61.2"/>
		<ellipse class="st26" cx="6178.2" cy="536.6" rx="21.4" ry="22.7"/>
	</g>
	<g>
		<ellipse class="st25" cx="6250.7" cy="536.6" rx="28.8" ry="61.2"/>
		<ellipse class="st26" cx="6250.7" cy="536.6" rx="21.4" ry="22.7"/>
	</g>
	<g>
		<ellipse class="st25" cx="6324.9" cy="536.6" rx="28.8" ry="61.2"/>
		<ellipse class="st26" cx="6324.9" cy="536.6" rx="21.4" ry="22.7"/>
	</g>
	<g>
		<ellipse class="st25" cx="6397.4" cy="536.6" rx="28.8" ry="61.2"/>
		<ellipse class="st26" cx="6397.4" cy="536.6" rx="21.4" ry="22.7"/>
	</g>
	<g>
		<ellipse class="st25" cx="5881" cy="536.6" rx="28.8" ry="61.2"/>
		<ellipse class="st26" cx="5881" cy="536.6" rx="21.4" ry="22.7"/>
	</g>
	<g>
		<ellipse class="st25" cx="5953.5" cy="536.6" rx="28.8" ry="61.2"/>
		<ellipse class="st26" cx="5953.5" cy="536.6" rx="21.4" ry="22.7"/>
	</g>
	<g>
		<ellipse class="st25" cx="6027.7" cy="536.6" rx="28.8" ry="61.2"/>
		<ellipse class="st26" cx="6027.7" cy="536.6" rx="21.4" ry="22.7"/>
	</g>
	<g>
		<ellipse class="st25" cx="6100.2" cy="536.6" rx="28.8" ry="61.2"/>
		<ellipse class="st26" cx="6100.2" cy="536.6" rx="21.4" ry="22.7"/>
	</g>
	<g>
		<ellipse class="st25" cx="6208.9" cy="659" rx="28.8" ry="61.2"/>
		<ellipse class="st26" cx="6208.9" cy="659" rx="21.4" ry="22.7"/>
	</g>
	<g>
		<ellipse class="st25" cx="6281.4" cy="659" rx="28.8" ry="61.2"/>
		<ellipse class="st26" cx="6281.4" cy="659" rx="21.4" ry="22.7"/>
	</g>
	<g>
		<ellipse class="st25" cx="6355.7" cy="659" rx="28.8" ry="61.2"/>
		<ellipse class="st26" cx="6355.7" cy="659" rx="21.4" ry="22.7"/>
	</g>
	<g>
		<ellipse class="st25" cx="6428.2" cy="659" rx="28.8" ry="61.2"/>
		<ellipse class="st26" cx="6428.2" cy="659" rx="21.4" ry="22.7"/>
	</g>
	<g>
		<ellipse class="st25" cx="5911.7" cy="659" rx="28.8" ry="61.2"/>
		<ellipse class="st26" cx="5911.7" cy="659" rx="21.4" ry="22.7"/>
	</g>
	<g>
		<ellipse class="st25" cx="5984.2" cy="659" rx="28.8" ry="61.2"/>
		<ellipse class="st26" cx="5984.2" cy="659" rx="21.4" ry="22.7"/>
	</g>
	<g>
		<ellipse class="st25" cx="6058.5" cy="659" rx="28.8" ry="61.2"/>
		<ellipse class="st26" cx="6058.5" cy="659" rx="21.4" ry="22.7"/>
	</g>
	<g>
		<ellipse class="st25" cx="6131" cy="659" rx="28.8" ry="61.2"/>
		<ellipse class="st26" cx="6131" cy="659" rx="21.4" ry="22.7"/>
	</g>
	<g>
		<ellipse class="st25" cx="6176" cy="291.8" rx="28.8" ry="61.2"/>
		<ellipse class="st26" cx="6176" cy="291.8" rx="21.4" ry="22.7"/>
	</g>
	<g>
		<ellipse class="st25" cx="6248.5" cy="291.8" rx="28.8" ry="61.2"/>
		<ellipse class="st26" cx="6248.5" cy="291.8" rx="21.4" ry="22.7"/>
	</g>
	<g>
		<ellipse class="st25" cx="6322.7" cy="291.8" rx="28.8" ry="61.2"/>
		<ellipse class="st26" cx="6322.7" cy="291.8" rx="21.4" ry="22.7"/>
	</g>
	<g>
		<ellipse class="st25" cx="6395.2" cy="291.8" rx="28.8" ry="61.2"/>
		<ellipse class="st26" cx="6395.2" cy="291.8" rx="21.4" ry="22.7"/>
	</g>
	<g>
		<ellipse class="st25" cx="5878.8" cy="291.8" rx="28.8" ry="61.2"/>
		<ellipse class="st26" cx="5878.8" cy="291.8" rx="21.4" ry="22.7"/>
	</g>
	<g>
		<ellipse class="st25" cx="5951.3" cy="291.8" rx="28.8" ry="61.2"/>
		<ellipse class="st26" cx="5951.3" cy="291.8" rx="21.4" ry="22.7"/>
	</g>
	<g>
		<ellipse class="st25" cx="6025.6" cy="291.8" rx="28.8" ry="61.2"/>
		<ellipse class="st26" cx="6025.6" cy="291.8" rx="21.4" ry="22.7"/>
	</g>
	<g>
		<ellipse class="st25" cx="6098.1" cy="291.8" rx="28.8" ry="61.2"/>
		<ellipse class="st26" cx="6098.1" cy="291.8" rx="21.4" ry="22.7"/>
	</g>
	<g>
		<ellipse class="st25" cx="6206.7" cy="414.2" rx="28.8" ry="61.2"/>
		<ellipse class="st26" cx="6206.7" cy="414.2" rx="21.4" ry="22.7"/>
	</g>
	<g>
		<ellipse class="st25" cx="6279.2" cy="414.2" rx="28.8" ry="61.2"/>
		<ellipse class="st26" cx="6279.2" cy="414.2" rx="21.4" ry="22.7"/>
	</g>
	<g>
		<ellipse class="st25" cx="6353.5" cy="414.2" rx="28.8" ry="61.2"/>
		<ellipse class="st26" cx="6353.5" cy="414.2" rx="21.4" ry="22.7"/>
	</g>
	<g>
		<ellipse class="st25" cx="6426" cy="414.2" rx="28.8" ry="61.2"/>
		<ellipse class="st26" cx="6426" cy="414.2" rx="21.4" ry="22.7"/>
	</g>
	<g>
		<ellipse class="st25" cx="6474.4" cy="536.6" rx="28.8" ry="61.2"/>
		<ellipse class="st26" cx="6474.4" cy="536.6" rx="21.4" ry="22.7"/>
	</g>
	<g>
		<ellipse class="st25" cx="6546.9" cy="536.6" rx="28.8" ry="61.2"/>
		<ellipse class="st26" cx="6546.9" cy="536.6" rx="21.4" ry="22.7"/>
	</g>
	<g>
		<ellipse class="st25" cx="6505.1" cy="659" rx="28.8" ry="61.2"/>
		<ellipse class="st26" cx="6505.1" cy="659" rx="21.4" ry="22.7"/>
	</g>
	<g>
		<ellipse class="st25" cx="6577.7" cy="659" rx="28.8" ry="61.2"/>
		<ellipse class="st26" cx="6577.7" cy="659" rx="21.4" ry="22.7"/>
	</g>
	<g>
		<ellipse class="st25" cx="6472.2" cy="291.8" rx="28.8" ry="61.2"/>
		<ellipse class="st26" cx="6472.2" cy="291.8" rx="21.4" ry="22.7"/>
	</g>
	<g>
		<ellipse class="st25" cx="6544.7" cy="291.8" rx="28.8" ry="61.2"/>
		<ellipse class="st26" cx="6544.7" cy="291.8" rx="21.4" ry="22.7"/>
	</g>
	<g>
		<ellipse class="st25" cx="6503" cy="414.2" rx="28.8" ry="61.2"/>
		<ellipse class="st26" cx="6503" cy="414.2" rx="21.4" ry="22.7"/>
	</g>
	<g>
		<ellipse class="st25" cx="6575.5" cy="414.2" rx="28.8" ry="61.2"/>
		<ellipse class="st26" cx="6575.5" cy="414.2" rx="21.4" ry="22.7"/>
	</g>
	<g>
		<ellipse class="st25" cx="5909.6" cy="414.2" rx="28.8" ry="61.2"/>
		<ellipse class="st26" cx="5909.6" cy="414.2" rx="21.4" ry="22.7"/>
	</g>
	<g>
		<ellipse class="st25" cx="5982.1" cy="414.2" rx="28.8" ry="61.2"/>
		<ellipse class="st26" cx="5982.1" cy="414.2" rx="21.4" ry="22.7"/>
	</g>
	<g>
		<ellipse class="st25" cx="6056.3" cy="414.2" rx="28.8" ry="61.2"/>
		<ellipse class="st26" cx="6056.3" cy="414.2" rx="21.4" ry="22.7"/>
	</g>
	<g>
		<ellipse class="st25" cx="6128.8" cy="414.2" rx="28.8" ry="61.2"/>
		<ellipse class="st26" cx="6128.8" cy="414.2" rx="21.4" ry="22.7"/>
	</g>
</g>
<g id="Labyrinth">
	<g>
		<polyline class="st27" points="3305,774.3 2868,774.3 2764.4,877.9 2764.4,815.1 2492.6,543.3 2108.2,543.3 1836.4,815.1 
			1836.4,1199.5 2108.2,1471.3 2171,1471.3 2069.1,1573.2 2069.1,2703 2174.6,2808.5 2104.4,2808.5 1832.6,3080.3 1832.6,3464.7 
			2104.4,3736.5 2488.8,3736.5 2760.6,3464.7 2760.6,3394.5 2868,3501.9 3132.9,3501.9 		"/>
		<polyline class="st27" points="2575.7,3297.7 2575.7,3394.7 2412.2,3567.5 2181,3567.5 2017.5,3394.7 2017.5,3150.3 2181,2977.5 
			2272.7,2977.5 		"/>
		<polyline class="st27" points="2546.4,1095.9 2781.2,1330.7 3005.5,1106.4 3860.2,1106.4 4086.9,1333.2 4321.8,1098.3 		"/>
		<polyline class="st27" points="4472.3,1248.8 4237.4,1483.7 4464.5,1710.8 4464.5,2565.4 4236.7,2793.2 4471.6,3028.1 		"/>
		<polyline class="st27" points="3712.5,3169.8 3860.2,3169.8 4086.2,2943.7 4321.1,3178.6 		"/>
		<polyline class="st27" points="4200.3,3299.4 4200.3,3436.1 4419.4,3655.2 4729.2,3655.2 4948.3,3436.1 4948.3,3126.3 
			4729.2,2907.2 4592.5,2907.2 		"/>
		<polyline class="st27" points="4187.8,964.4 4187.8,852.4 4406.9,633.3 4716.7,633.3 4935.8,852.4 4935.8,1162.2 4716.7,1381.3 
			4604.7,1381.3 		"/>
		<polyline class="st27" points="2261,1381.3 2145.5,1381.3 1926.4,1162.2 1926.4,852.4 2145.5,633.3 2455.3,633.3 2674.4,852.4 
			2674.4,967.9 		"/>
		<polyline class="st27" points="2395.9,1246.4 2630.7,1481.2 2401.2,1710.8 2401.2,2565.4 2631.4,2795.7 2396.6,3030.5 		"/>
		<polyline class="st27" points="4321.8,1098.3 4332.6,1087.5 4377.8,1042.3 4377.8,931.1 4485.6,823.3 4638,823.3 4745.8,931.1 
			4745.8,1083.5 4638,1191.3 4529.8,1191.3 4483.1,1238 4472.3,1248.8 		"/>
		<polyline class="st27" points="2395.9,1246.4 2394,1244.5 2340.8,1191.3 2224.2,1191.3 2116.4,1083.5 2116.4,931.1 2224.2,823.3 
			2376.6,823.3 2484.4,931.1 2484.4,1033.9 2544.4,1093.9 2546.4,1095.9 		"/>
		<polyline class="st27" points="2396.6,3030.5 2388.8,3038.3 2338.6,3088.5 2220.4,3088.5 2112.6,3196.3 2112.6,3348.7 
			2220.4,3456.5 2372.8,3456.5 2480.6,3348.7 2480.6,3247.5 2539.3,3188.8 2547.1,3181 2548.6,3182.5 		"/>
		<path class="st27" d="M2396.6,3030.5"/>
		<polyline class="st27" points="4321.1,3178.6 4390.3,3247.8 4390.3,3357.4 4498.1,3465.2 4650.5,3465.2 4758.3,3357.4 
			4758.3,3205 4650.5,3097.2 4540.7,3097.2 4471.6,3028.1 		"/>
		<line class="st27" x1="2630.8" y1="1481.3" x2="2630.7" y2="1481.2"/>
		<line class="st27" x1="2781.3" y1="1330.8" x2="2781.2" y2="1330.7"/>
		<line class="st27" x1="2635" y1="2792.1" x2="2631.4" y2="2795.7"/>
		<line class="st27" x1="2785.5" y1="2942.6" x2="2781.9" y2="2946.2"/>
		<line class="st27" x1="4236.7" y1="2793.2" x2="4226.8" y2="2783.3"/>
		<line class="st27" x1="4086.2" y1="2943.7" x2="4076.3" y2="2933.8"/>
		<polyline class="st27" points="3526.7,1412.2 3733.5,1412.2 4158.8,1837.4 4158.8,2438.8 3733.5,2864 3540.5,2864 3540.5,2864 
			3540.5,2570.1 3611.8,2570.1 3864.9,2317.1 3864.9,1959.1 3611.8,1706 3526.7,1706 3333.2,1706 3253.9,1706 3000.8,1959.1 
			3000.8,2317.1 3253.9,2570.1 3333.2,2570.1 		"/>
		<line class="st27" x1="4158.8" y1="2138.4" x2="4464.5" y2="2138.4"/>
		<polyline class="st27" points="2547.6,3181.6 2547.1,3181 2781.9,2946.2 3005.5,3169.8 3454.5,3169.8 3454.5,3501.9 
			3997.8,3501.9 4110.3,3389.4 4110.3,3473.4 4382.1,3745.2 4766.5,3745.2 5038.3,3473.4 5038.3,3089 4766.5,2817.2 4682.5,2817.2 
			4796.7,2703 4796.7,1573.2 4694.7,1471.3 4754,1471.3 5025.8,1199.5 5025.8,815.1 4754,543.3 4369.6,543.3 4097.8,815.1 
			4097.8,874.4 3997.8,774.3 3600.6,774.3 		"/>
		<polyline class="st27" points="3353.4,1706 3353.4,1412.2 3132.2,1412.2 2707,1837.4 2707,2046.1 		"/>
		<polyline class="st27" points="2401.2,2207.1 2707,2207.1 2707,2438.8 3132.2,2864 3333.2,2864 		"/>
	</g>
</g>
<g id="Carpet">
	<g>
		<rect x="7039" y="214" class="st28" width="676.8" height="525.6"/>
		<rect x="7039" y="214" class="st29" width="676.8" height="525.6"/>
	</g>
</g>
<g id="Dome_Bits">
	<g>
		<path class="st30" d="M7080.2,1515.1l-30.6,7.9c-1.3,0.3-2.6,0.1-3.8-0.4c-2-1.3-3.2-3.8-2.9-6.3c0.5-3.2,3.2-5.5,6.3-5.5
			c0.3,0,0.6,0,0.9,0.1L7080.2,1515.1z"/>
		<path class="st30" d="M7358.1,1560.7c0,0.3,0,0.6-0.1,0.9c-0.4,2.6-2.2,4.6-4.6,5.3c-1.1-1-1.8-2.4-1.8-4v-8.7l0.9,0.1
			C7355.8,1554.8,7358.1,1557.6,7358.1,1560.7z"/>
		<path class="st30" d="M7363.6,1554.4l0.9-0.1v8.7c0,1.6-0.7,3-1.8,4c-2.4-0.7-4.3-2.7-4.6-5.3c0-0.3-0.1-0.6-0.1-0.9
			C7358.1,1557.6,7360.4,1554.8,7363.6,1554.4z"/>
		<path class="st30" d="M7670,1522.7L7670,1522.7c-1.1,0.5-2.3,0.6-3.5,0.3l-30.6-7.9l29.9-4.3c0.3,0,0.6-0.1,0.9-0.1
			c3.1,0,5.9,2.3,6.3,5.5C7673.5,1518.9,7672.2,1521.4,7670,1522.7z"/>
		<path class="st30" d="M7225.1,1477.9l-135.6,34.8l-8.5,2.2l-0.8,0.2l-30.6,7.9c-1.3,0.3-2.6,0.1-3.8-0.4c-1.3-0.7-2.3-1.9-2.7-3.4
			l-0.5-2.1c-0.7-2.9,1-5.8,3.9-6.5l175.5-45.1c2.9-0.7,5.8,1,6.5,3.9l0.5,2.1C7229.7,1474.3,7227.9,1477.2,7225.1,1477.9z"/>
		<path class="st30" d="M7673.6,1517.1l-0.5,2.1c-0.4,1.7-1.6,2.9-3,3.6l0,0c-1,0.5-2.3,0.6-3.5,0.3l-30.6-7.9h-0.1l-17.3-4.4
			l-127.5-32.8c-2.9-0.7-4.6-3.6-3.9-6.5l0.5-2.1c0.7-2.9,3.6-4.6,6.5-3.9l175.5,45.1C7672.6,1511.3,7674.3,1514.2,7673.6,1517.1z"
			/>
		<path class="st30" d="M7666.6,1523l-30.6-7.9h-0.1l0,0l-17.3-4.4h-226.5l89.5-33.2h0.1c3,0,5.4-2.4,5.4-5.4v-2.1
			c0-3-2.4-5.4-5.4-5.4h-246.1c-3,0-5.3,2.4-5.3,5.4v2.1c0,3,2.4,5.4,5.3,5.4h0.8l83.7,31.1l-230.7,4.2l-8.5,2.2
			c-0.1,0.1-0.1,0.2-0.2,0.3l-0.6-0.1l-30.6,7.9c-1.3,0.3-2.6,0.1-3.8-0.4c0.8,0.5,1.6,0.8,2.6,1l302.3,43.5
			c0.3,0.1,0.6,0.1,0.9,0.1c0.6,0,1.2-0.1,1.8-0.3c-1.1-1-1.8-2.4-1.8-4v-8.7l-205.9-29.7l205.9-3.8v33.4l0.9,0.1
			c3.2,0.5,5.5,3.2,5.5,6.3c0-3.1,2.3-5.9,5.5-6.3l0.9-0.1v-33.9c0.2,0,0.4,0,0.5,0c0.8,1.9,2.7,3.2,4.9,3.2h207.8l-213.3,30.7v8.7
			c0,1.6-0.7,3-1.8,4c0.6,0.1,1.1,0.2,1.7,0.2c0.3,0,0.6,0,0.9-0.1l302.3-43.5c0.8-0.1,1.6-0.4,2.3-0.8
			C7669,1523.2,7667.8,1523.3,7666.6,1523z M7362.5,1508c-0.3,0.1-0.6,0.3-0.9,0.4l-0.1,0.1c-1.5,1-2.5,2.7-2.5,4.5
			c0-2.1-1.2-4-3.2-4.9c-0.1,0-0.2-0.1-0.3-0.1l-0.2-0.1l-82-30.5h171.5L7362.5,1508z"/>
		<path class="st30" d="M7361.5,1508.5c-1.5,1-2.5,2.7-2.5,4.5c0-2.1-1.2-4-3.2-4.9c0.4-0.1,0.8-0.1,1.2-0.1h2.1
			C7360,1508,7360.8,1508.2,7361.5,1508.5z"/>
		<path class="st30" d="M7089.5,1512.8l-8.5,2.2c1-1.3,2.5-2.1,4.1-2.1L7089.5,1512.8z"/>
		<path class="st30" d="M7364.5,1554.2v8.7c0,1.6-0.7,3-1.8,4c-0.9,0.9-2.2,1.4-3.6,1.4h-2.1c-1.4,0-2.7-0.5-3.6-1.4
			c-1.1-1-1.8-2.4-1.8-4v-8.7l0.9,0.1c3.2,0.5,5.5,3.2,5.5,6.3c0-3.1,2.3-5.9,5.5-6.3L7364.5,1554.2z"/>
		<path class="st30" d="M7635.8,1515.1l-17.3-4.4h12C7633.2,1510.7,7635.4,1512.6,7635.8,1515.1z"/>
		<path class="st30" d="M7361.6,1508.4l-0.1,0.1c-1.5,1-2.5,2.7-2.5,4.5c0-2.1-1.2-4-3.2-4.9c-0.1,0-0.2-0.1-0.3-0.1l-0.2-0.1
			l3.8-0.1C7360,1507.8,7360.8,1508,7361.6,1508.4z"/>
		<circle class="st31" cx="7359" cy="1513.7" r="4.8"/>
		
			<rect x="7357.9" y="1512.5" transform="matrix(0.7071 -0.7071 0.7071 0.7071 1085.2124 5646.7446)" class="st32" width="1.9" height="1.9"/>
	</g>
	<g>
		<path class="st30" d="M7080.1,1693.9l-30.6,7.9c-1.3,0.3-2.6,0.1-3.8-0.4c-2-1.3-3.2-3.8-2.9-6.3c0.5-3.2,3.2-5.5,6.3-5.5
			c0.3,0,0.6,0,0.9,0.1L7080.1,1693.9z"/>
		<path class="st30" d="M7357.9,1739.4c0,0.3,0,0.6-0.1,0.9c-0.4,2.6-2.2,4.6-4.6,5.3c-1.1-1-1.8-2.4-1.8-4v-8.7l0.9,0.1
			C7355.6,1733.6,7357.9,1736.3,7357.9,1739.4z"/>
		<path class="st30" d="M7363.4,1733.1l0.9-0.1v8.7c0,1.6-0.7,3-1.8,4c-2.4-0.7-4.3-2.7-4.6-5.3c-0.1-0.3-0.1-0.6-0.1-0.9
			C7357.9,1736.3,7360.2,1733.6,7363.4,1733.1z"/>
		<path class="st30" d="M7669.9,1701.5L7669.9,1701.5c-1.1,0.5-2.3,0.6-3.5,0.3l-30.6-7.9l29.9-4.3c0.3,0,0.6-0.1,0.9-0.1
			c3.1,0,5.9,2.3,6.3,5.5C7673.4,1697.7,7672.1,1700.2,7669.9,1701.5z"/>
		<path class="st30" d="M7224.9,1656.7l-135.6,34.8l-8.5,2.2l-0.8,0.2l-30.6,7.9c-1.3,0.3-2.6,0.1-3.8-0.4c-1.3-0.7-2.3-1.9-2.7-3.4
			l-0.5-2.1c-0.7-2.9,1-5.8,3.9-6.5l175.5-45.1c2.9-0.7,5.8,1,6.5,3.9l0.5,2.1C7229.5,1653,7227.8,1655.9,7224.9,1656.7z"/>
		<path class="st30" d="M7673.4,1695.8l-0.5,2.1c-0.4,1.7-1.6,2.9-3,3.6l0,0c-1.1,0.5-2.3,0.6-3.5,0.3l-30.6-7.9h-0.1l-17.3-4.4
			l-127.5-32.8c-2.9-0.7-4.6-3.6-3.9-6.5l0.5-2.1c0.7-2.9,3.6-4.6,6.5-3.9l175.5,45.1C7672.4,1690,7674.2,1693,7673.4,1695.8z"/>
		<path class="st30" d="M7666.4,1701.7l-30.6-7.9h-0.1l0,0l-17.3-4.4h-226.5l89.5-33.2h0.1c2.9,0,5.3-2.4,5.3-5.4v-2.1
			c0-3-2.4-5.4-5.3-5.4h-246.1c-3,0-5.4,2.4-5.4,5.4v2.1c0,3,2.4,5.4,5.4,5.4h0.8l83.7,31.1l-230.7,4.2l-8.5,2.2
			c-0.1,0.1-0.1,0.2-0.2,0.3l-0.6-0.1l-30.6,7.9c-1.3,0.3-2.6,0.1-3.8-0.4c0.8,0.5,1.6,0.8,2.6,1l302.3,43.5
			c0.3,0.1,0.6,0.1,0.9,0.1c0.6,0,1.2-0.1,1.8-0.3c-1.1-1-1.8-2.4-1.8-4v-8.7l-205.9-29.7l205.9-3.8v33.4l0.9,0.1
			c3.2,0.5,5.5,3.2,5.5,6.3c0-3.1,2.3-5.9,5.5-6.3l0.9-0.1V1699c0.2,0,0.4,0,0.5,0c0.8,1.9,2.7,3.2,4.9,3.2h207.8l-213.3,30.7v8.7
			c0,1.6-0.7,3-1.8,4c0.5,0.1,1.1,0.2,1.7,0.2c0.3,0,0.6,0,0.9-0.1l302.3-43.5c0.8-0.1,1.6-0.4,2.3-0.8
			C7668.8,1701.9,7667.6,1702.1,7666.4,1701.7z M7362.3,1686.7c-0.3,0.1-0.6,0.3-0.9,0.4c-0.1,0-0.1,0.1-0.1,0.1
			c-1.5,1-2.5,2.7-2.5,4.5c0-2.1-1.2-4-3.2-4.9c-0.1,0-0.2-0.1-0.3-0.1l-0.2-0.1l-82-30.5h171.4L7362.3,1686.7z"/>
		<path class="st30" d="M7361.3,1687.2c-1.5,1-2.5,2.7-2.5,4.5c0-2.1-1.2-4-3.2-4.9c0.4-0.1,0.8-0.1,1.2-0.1h2.1
			C7359.8,1686.7,7360.6,1686.9,7361.3,1687.2z"/>
		<path class="st30" d="M7089.3,1691.5l-8.5,2.2c1-1.3,2.4-2.1,4.1-2.1L7089.3,1691.5z"/>
		<path class="st30" d="M7364.3,1733v8.7c0,1.6-0.7,3-1.8,4c-1,0.9-2.2,1.4-3.6,1.4h-2.1c-1.4,0-2.7-0.5-3.6-1.4
			c-1.1-1-1.8-2.4-1.8-4v-8.7l0.9,0.1c3.2,0.5,5.5,3.2,5.5,6.3c0-3.1,2.3-5.9,5.5-6.3L7364.3,1733z"/>
		<path class="st30" d="M7635.7,1693.9l-17.3-4.4h12C7633.1,1689.4,7635.3,1691.3,7635.7,1693.9z"/>
		<path class="st30" d="M7361.4,1687.1c-0.1,0-0.1,0.1-0.1,0.1c-1.5,1-2.5,2.7-2.5,4.5c0-2.1-1.2-4-3.2-4.9c-0.1,0-0.2-0.1-0.3-0.1
			l-0.2-0.1l3.8-0.1C7359.8,1686.5,7360.7,1686.8,7361.4,1687.1z"/>
		<circle class="st31" cx="7358.8" cy="1692.5" r="4.8"/>
		
			<rect x="7357.8" y="1691.3" transform="matrix(0.7071 -0.7071 0.7071 0.7071 958.7353 5699.0825)" class="st32" width="1.9" height="1.9"/>
	</g>
	<g>
		<path class="st30" d="M7076.8,1863.5l-30.6,7.9c-1.3,0.3-2.6,0.1-3.8-0.4c-2-1.3-3.2-3.8-2.9-6.3c0.5-3.2,3.2-5.5,6.3-5.5
			c0.3,0,0.6,0,0.9,0.1L7076.8,1863.5z"/>
		<path class="st30" d="M7354.7,1909.1c0,0.3,0,0.6-0.1,0.9c-0.4,2.6-2.2,4.6-4.6,5.3c-1.1-1-1.8-2.4-1.8-4v-8.7l0.9,0.1
			C7352.4,1903.2,7354.7,1906,7354.7,1909.1z"/>
		<path class="st30" d="M7360.2,1902.8l0.9-0.1v8.7c0,1.6-0.7,3-1.8,4c-2.4-0.7-4.3-2.7-4.6-5.3c-0.1-0.3-0.1-0.6-0.1-0.9
			C7354.7,1906,7357,1903.2,7360.2,1902.8z"/>
		<path class="st30" d="M7666.7,1871.1C7666.6,1871.1,7666.6,1871.1,7666.7,1871.1c-1.1,0.5-2.3,0.6-3.5,0.3l-30.6-7.9l29.9-4.3
			c0.3,0,0.6-0.1,0.9-0.1c3.1,0,5.9,2.3,6.3,5.5C7670.1,1867.3,7668.8,1869.8,7666.7,1871.1z"/>
		<path class="st30" d="M7221.7,1826.3l-135.6,34.8l-8.5,2.2l-0.8,0.2l-30.6,7.9c-1.3,0.3-2.6,0.1-3.8-0.4c-1.3-0.7-2.3-1.9-2.7-3.4
			l-0.5-2.1c-0.7-2.9,1-5.8,3.9-6.5l175.5-45.1c2.9-0.7,5.8,1,6.5,3.9l0.5,2.1C7226.3,1822.7,7224.6,1825.6,7221.7,1826.3z"/>
		<path class="st30" d="M7670.2,1865.5l-0.5,2.1c-0.4,1.7-1.6,2.9-3,3.6l0,0c-1.1,0.5-2.3,0.6-3.5,0.3l-30.6-7.9h-0.1l-17.3-4.4
			l-127.5-32.8c-2.9-0.7-4.6-3.6-3.9-6.5l0.5-2.1c0.7-2.9,3.6-4.6,6.5-3.9l175.5,45.1C7669.2,1859.7,7671,1862.6,7670.2,1865.5z"/>
		<path class="st30" d="M7663.2,1871.4l-30.6-7.9h-0.1l0,0l-17.3-4.4h-226.5l89.5-33.2h0.1c2.9,0,5.3-2.4,5.3-5.4v-2.1
			c0-3-2.4-5.4-5.3-5.4h-246.1c-3,0-5.4,2.4-5.4,5.4v2.1c0,3,2.4,5.4,5.4,5.4h0.8l83.7,31.1l-230.7,4.2l-8.5,2.2
			c-0.1,0.1-0.1,0.2-0.2,0.3l-0.6-0.1l-30.6,7.9c-1.3,0.3-2.6,0.1-3.8-0.4c0.8,0.5,1.6,0.8,2.6,1l302.3,43.5
			c0.3,0.1,0.6,0.1,0.9,0.1c0.6,0,1.2-0.1,1.8-0.3c-1.1-1-1.8-2.4-1.8-4v-8.7l-205.9-29.7l205.9-3.8v33.4l0.9,0.1
			c3.2,0.5,5.5,3.2,5.5,6.3c0-3.1,2.3-5.9,5.5-6.3l0.9-0.1v-33.9c0.2,0,0.4,0,0.5,0c0.8,1.9,2.7,3.2,4.9,3.2h207.8l-213.3,30.7v8.7
			c0,1.6-0.7,3-1.8,4c0.5,0.1,1.1,0.2,1.7,0.2c0.3,0,0.6,0,0.9-0.1l302.3-43.5c0.8-0.1,1.6-0.4,2.3-0.8
			C7665.6,1871.6,7664.4,1871.7,7663.2,1871.4z M7359.1,1856.4c-0.3,0.1-0.6,0.3-0.9,0.4c-0.1,0-0.1,0.1-0.1,0.1
			c-1.5,1-2.5,2.7-2.5,4.5c0-2.1-1.2-4-3.2-4.9c-0.1,0-0.2-0.1-0.3-0.1l-0.2-0.1l-82-30.5h171.4L7359.1,1856.4z"/>
		<path class="st30" d="M7358.1,1856.9c-1.5,1-2.5,2.7-2.5,4.5c0-2.1-1.2-4-3.2-4.9c0.4-0.1,0.8-0.1,1.2-0.1h2.1
			C7356.6,1856.4,7357.4,1856.6,7358.1,1856.9z"/>
		<path class="st30" d="M7086.1,1861.2l-8.5,2.2c1-1.3,2.4-2.1,4.1-2.1L7086.1,1861.2z"/>
		<path class="st30" d="M7361.1,1902.6v8.7c0,1.6-0.7,3-1.8,4c-1,0.9-2.2,1.4-3.6,1.4h-2.1c-1.4,0-2.7-0.5-3.6-1.4
			c-1.1-1-1.8-2.4-1.8-4v-8.7l0.9,0.1c3.2,0.5,5.5,3.2,5.5,6.3c0-3.1,2.3-5.9,5.5-6.3L7361.1,1902.6z"/>
		<path class="st30" d="M7632.5,1863.5l-17.3-4.4h12C7629.9,1859.1,7632,1861,7632.5,1863.5z"/>
		<path class="st30" d="M7358.2,1856.8c-0.1,0-0.1,0.1-0.1,0.1c-1.5,1-2.5,2.7-2.5,4.5c0-2.1-1.2-4-3.2-4.9c-0.1,0-0.2-0.1-0.3-0.1
			l-0.2-0.1l3.8-0.1C7356.6,1856.2,7357.5,1856.4,7358.2,1856.8z"/>
		<circle class="st31" cx="7355.6" cy="1862.1" r="4.8"/>
		
			<rect x="7354.5" y="1860.8" transform="matrix(0.7071 -0.7071 0.7071 0.7071 837.8679 5746.3916)" class="st32" width="1.9" height="1.9"/>
	</g>
	<g>
		<path class="st30" d="M7082,2033.2l-30.6,7.9c-1.3,0.3-2.6,0.1-3.8-0.4c-2-1.3-3.2-3.8-2.9-6.3c0.5-3.2,3.2-5.5,6.3-5.5
			c0.3,0,0.6,0,0.9,0.1L7082,2033.2z"/>
		<path class="st30" d="M7359.9,2078.7c0,0.3,0,0.6-0.1,0.9c-0.4,2.6-2.2,4.6-4.6,5.3c-1.1-1-1.8-2.4-1.8-4v-8.7l0.9,0.1
			C7357.6,2072.9,7359.9,2075.6,7359.9,2078.7z"/>
		<path class="st30" d="M7365.4,2072.4l0.9-0.1v8.7c0,1.6-0.7,3-1.8,4c-2.4-0.7-4.3-2.7-4.6-5.3c0-0.3-0.1-0.6-0.1-0.9
			C7359.9,2075.6,7362.2,2072.9,7365.4,2072.4z"/>
		<path class="st30" d="M7671.8,2040.7C7671.8,2040.8,7671.8,2040.8,7671.8,2040.7c-1.1,0.5-2.3,0.6-3.5,0.3l-30.6-7.9l29.9-4.3
			c0.3,0,0.6-0.1,0.9-0.1c3.1,0,5.9,2.3,6.3,5.5C7675.3,2037,7674,2039.5,7671.8,2040.7z"/>
		<path class="st30" d="M7226.9,1996l-135.6,34.8l-8.5,2.2l-0.8,0.2l-30.6,7.9c-1.3,0.3-2.6,0.1-3.8-0.4c-1.3-0.7-2.3-1.9-2.7-3.4
			l-0.5-2.1c-0.7-2.9,1-5.8,3.9-6.5l175.5-45.1c2.9-0.7,5.8,1,6.5,3.9l0.5,2.1C7231.5,1992.3,7229.7,1995.2,7226.9,1996z"/>
		<path class="st30" d="M7675.4,2035.1l-0.5,2.1c-0.4,1.7-1.6,2.9-3,3.6l0,0c-1,0.5-2.3,0.6-3.5,0.3l-30.6-7.9h-0.1l-17.3-4.4
			l-127.5-32.8c-2.9-0.7-4.6-3.6-3.9-6.5l0.5-2.1c0.7-2.9,3.6-4.6,6.5-3.9l175.5,45.1C7674.4,2029.3,7676.1,2032.2,7675.4,2035.1z"
			/>
		<path class="st30" d="M7668.4,2041l-30.6-7.9h-0.1l0,0l-17.3-4.4h-226.5l89.5-33.2h0.1c3,0,5.4-2.4,5.4-5.4v-2.1
			c0-3-2.4-5.4-5.4-5.4h-246.1c-3,0-5.3,2.4-5.3,5.4v2.1c0,3,2.4,5.4,5.3,5.4h0.8l83.7,31.1l-230.7,4.2l-8.5,2.2
			c-0.1,0.1-0.1,0.2-0.2,0.3l-0.6-0.1l-30.6,7.9c-1.3,0.3-2.6,0.1-3.8-0.4c0.8,0.5,1.6,0.8,2.6,1l302.3,43.5
			c0.3,0.1,0.6,0.1,0.9,0.1c0.6,0,1.2-0.1,1.8-0.3c-1.1-1-1.8-2.4-1.8-4v-8.7l-205.9-29.7l205.9-3.8v33.4l0.9,0.1
			c3.2,0.5,5.5,3.2,5.5,6.3c0-3.1,2.3-5.9,5.5-6.3l0.9-0.1v-33.9c0.2,0,0.4,0,0.5,0c0.8,1.9,2.7,3.2,4.9,3.2h207.8l-213.3,30.7v8.7
			c0,1.6-0.7,3-1.8,4c0.6,0.1,1.1,0.2,1.7,0.2c0.3,0,0.6,0,0.9-0.1l302.3-43.5c0.8-0.1,1.6-0.4,2.3-0.8
			C7670.8,2041.2,7669.6,2041.3,7668.4,2041z M7364.3,2026c-0.3,0.1-0.6,0.3-0.9,0.4l-0.1,0.1c-1.5,1-2.5,2.7-2.5,4.5
			c0-2.1-1.2-4-3.2-4.9c-0.1,0-0.2-0.1-0.3-0.1l-0.2-0.1l-82-30.5h171.5L7364.3,2026z"/>
		<path class="st30" d="M7363.3,2026.5c-1.5,1-2.5,2.7-2.5,4.5c0-2.1-1.2-4-3.2-4.9c0.4-0.1,0.8-0.1,1.2-0.1h2.1
			C7361.8,2026,7362.6,2026.2,7363.3,2026.5z"/>
		<path class="st30" d="M7091.3,2030.8l-8.5,2.2c1-1.3,2.5-2.1,4.1-2.1L7091.3,2030.8z"/>
		<path class="st30" d="M7366.3,2072.3v8.7c0,1.6-0.7,3-1.8,4c-0.9,0.9-2.2,1.4-3.6,1.4h-2.1c-1.4,0-2.7-0.5-3.6-1.4
			c-1.1-1-1.8-2.4-1.8-4v-8.7l0.9,0.1c3.2,0.5,5.5,3.2,5.5,6.3c0-3.1,2.3-5.9,5.5-6.3L7366.3,2072.3z"/>
		<path class="st30" d="M7637.6,2033.1l-17.3-4.4h12C7635,2028.7,7637.2,2030.6,7637.6,2033.1z"/>
		<path class="st30" d="M7363.4,2026.4l-0.1,0.1c-1.5,1-2.5,2.7-2.5,4.5c0-2.1-1.2-4-3.2-4.9c-0.1,0-0.2-0.1-0.3-0.1l-0.2-0.1
			l3.8-0.1C7361.8,2025.8,7362.6,2026,7363.4,2026.4z"/>
		<circle class="st31" cx="7360.8" cy="2031.8" r="4.8"/>
		
			<rect x="7359.7" y="2030.5" transform="matrix(0.7071 -0.7071 0.7071 0.7071 719.4172 5799.7573)" class="st32" width="1.9" height="1.9"/>
	</g>
</g>
</svg>
